<?xml version="1.0" standalone="no"?><!DOCTYPE svg PUBLIC "-//W3C//DTD SVG 1.1//EN" "http://www.w3.org/Graphics/SVG/1.1/DTD/svg11.dtd"><svg t="1513306051459" class="icon" style="" viewBox="0 0 1024 1024" version="1.1" xmlns="http://www.w3.org/2000/svg" p-id="9194" xmlns:xlink="http://www.w3.org/1999/xlink" width="200" height="200"><defs><style type="text/css"></style></defs><path d="M674.428 221.255c38.29 0 76.526 13.992 110.568 40.464 32.622 25.364 52.405 64.208 55.702 109.38 4.228 57.986-18.507 117.493-62.026 162.896C639.485 676.82 561.988 756.041 518.835 799.982c-2.332 2.377-5.924 5.208-9.781 5.208-4.098 0-7.935-3.315-9.862-5.291-42.748-43.897-119.494-122.817-257.281-264.703-69.316-79.593-70.572-211.701-2.372-277.927 23.571-22.89 59.179-36.016 97.7-36.014 48.017 0.005 94.728 19.731 128.155 54.121l44.299 45.58 44.304-45.573c34.424-35.41 76.072-54.128 120.431-54.128m0-61.783c-58.794 0-117.053 23.806-164.729 72.843-47.657-49.033-111.464-72.838-172.455-72.843-53.255-0.003-104.359 18.137-140.748 53.473-96.334 93.552-88.829 263.6 0 364.172 138.507 142.625 215.563 221.865 258.432 265.887 15.555 15.976 34.843 23.971 54.126 23.971 19.173 0 38.345-7.898 53.866-23.703 43.179-43.969 120.725-123.239 260.003-266.154 107.436-112.082 106.02-281.742 0-364.172-45.441-35.332-97.171-53.474-148.495-53.474z" p-id="9195"></path></svg>