<?xml version="1.0" standalone="no"?><!DOCTYPE svg PUBLIC "-//W3C//DTD SVG 1.1//EN" "http://www.w3.org/Graphics/SVG/1.1/DTD/svg11.dtd"><svg t="1513306078294" class="icon" style="" viewBox="0 0 1024 1024" version="1.1" xmlns="http://www.w3.org/2000/svg" p-id="9302" xmlns:xlink="http://www.w3.org/1999/xlink" width="200" height="200"><defs><style type="text/css"></style></defs><path d="M545.386 278.406c-17.454 17.817-17.454 46.701 0 64.518l141.351 136.758H224.891a46.468 46.468 0 0 0-4.073-0.19c-25.35 0-45.898 20.549-45.898 45.898 0 24.476 19.159 44.467 43.297 45.816v0.324h479.378L546.689 725.559c-17.329 17.687-17.329 46.379 0 64.07 17.333 17.696 45.447 17.696 62.776 0l224.472-229.121c17.333-17.696 17.333-46.379 0-64.07a45.226 45.226 0 0 0-3.034-2.815 45.537 45.537 0 0 0-1.203-1.292L608.592 278.406c-17.455-17.817-45.752-17.817-63.206 0z" fill="#999999" p-id="9303"></path></svg>